<svg xmlns="http://www.w3.org/2000/svg" xmlns:xlink="http://www.w3.org/1999/xlink" width="13" height="13" viewBox="0 0 13 13">
  <defs>
    <clipPath id="clip-token_window_icon_dark">
      <rect width="13" height="13"/>
    </clipPath>
  </defs>
  <g id="token_window_icon_dark" clip-path="url(#clip-token_window_icon_dark)">
    <g id="Group_1" data-name="Group 1">
      <path id="Path_1" data-name="Path 1" d="M6.9,16.792A.5.5,0,0,1,6.3,17.3a5.42,5.42,0,0,1-4.257-4.757A.5.5,0,0,1,2.562,12H4.187a.542.542,0,0,1,.542.542,1.625,1.625,0,0,0,1.625,1.625.542.542,0,0,1,.542.542Z" transform="translate(-0.937 -5.5)" fill="#ced0d6"/>
      <path id="Path_2" data-name="Path 2" d="M17,17.586a.473.473,0,0,0,.768.4,5.444,5.444,0,0,0,1.1-1.257.482.482,0,0,0-.44-.73h-.888a.542.542,0,0,0-.542.542Z" transform="translate(-7.792 -7.333)" fill="#ced0d6"/>
      <path id="Path_3" data-name="Path 3" d="M10.625,2a5.4,5.4,0,0,1,3.6,1.37.459.459,0,0,1-.351.8H13.8A1.546,1.546,0,0,0,12.25,5.713a.463.463,0,0,1-.256.414l-.044.022a.542.542,0,0,1-.484,0l-.044-.022a.463.463,0,0,1-.256-.414A1.546,1.546,0,0,0,9.621,4.167H9.542A.542.542,0,0,1,9,3.625V2.646a.508.508,0,0,1,.383-.5A5.432,5.432,0,0,1,10.625,2Z" transform="translate(-4.125 -0.917)" fill="#ced0d6"/>
      <path id="Path_4" data-name="Path 4" d="M2.987,7.292a.494.494,0,0,1-.491-.64A5.425,5.425,0,0,1,4.185,4.2a.456.456,0,0,1,.738.387h0A1.625,1.625,0,0,0,6.549,6.209h.079a.463.463,0,0,1,.463.463,1.546,1.546,0,0,0,.855,1.383l.044.022a1.625,1.625,0,0,0,1.453,0l.044-.022a1.546,1.546,0,0,0,.855-1.383.463.463,0,0,1,.463-.463h1.441a.51.51,0,0,1,.486.329,5.407,5.407,0,0,1,.32,1.837,5.474,5.474,0,0,1-.038.646.507.507,0,0,1-.513.437H10.882a1.625,1.625,0,0,0-1.625,1.625v2.063a.508.508,0,0,1-.383.5l-.109.024a.5.5,0,0,1-.591-.506V11.084A1.625,1.625,0,0,0,6.549,9.459a.542.542,0,0,1-.542-.542A1.625,1.625,0,0,0,4.382,7.292Z" transform="translate(-1.132 -1.876)" fill="#ced0d6"/>
    </g>
  </g>
</svg>
